<svg width="700" height="80" viewBox="0 0 700 80" fill="none" xmlns="http://www.w3.org/2000/svg">
<path d="M0 39H700V41H0V39Z" fill="#BDAE82"/>
<path d="M279 0H421V80H279V0Z" fill="black"/>
<path d="M303.823 27.28L300.823 26.76V24.28H306.863C307.423 24.28 308.289 24.2533 309.463 24.2C311.009 24.0933 312.409 24.04 313.663 24.04C316.436 24.04 318.623 24.3867 320.223 25.08C321.849 25.7467 322.996 26.72 323.663 28C324.356 29.2533 324.703 30.8533 324.703 32.8C324.703 36.16 323.649 38.7733 321.543 40.64C319.463 42.5067 316.569 43.44 312.863 43.44C311.396 43.44 310.343 43.4 309.703 43.32V51.2L315.063 51.6V54H300.663V51.6L303.823 51.2V27.28ZM309.663 40.76C310.276 40.8933 311.316 40.96 312.783 40.96C314.569 40.96 315.996 40.3467 317.063 39.12C318.156 37.8667 318.703 35.8 318.703 32.92C318.703 30.68 318.209 29.0533 317.223 28.04C316.263 27 314.783 26.48 312.783 26.48C312.036 26.48 311.263 26.5333 310.463 26.64C310.089 26.6933 309.823 26.72 309.663 26.72V40.76ZM327.308 51.64L329.948 51.32V35.56L327.388 34.84V32.08L333.588 31.24H333.708L334.708 32.04V32.92L334.588 36.16H334.708C334.894 35.6267 335.334 34.9733 336.028 34.2C336.721 33.4 337.588 32.7067 338.628 32.12C339.694 31.5067 340.841 31.2 342.068 31.2C342.654 31.2 343.161 31.28 343.588 31.44V37.44C342.788 36.88 341.814 36.6 340.668 36.6C338.721 36.6 337.028 37.12 335.588 38.16V51.28L340.228 51.64V54H327.308V51.64ZM350.896 28.12C349.936 28.12 349.176 27.84 348.616 27.28C348.056 26.72 347.776 26 347.776 25.12C347.776 24.1067 348.096 23.2667 348.736 22.6C349.376 21.9333 350.229 21.6 351.296 21.6C352.363 21.6 353.176 21.8933 353.736 22.48C354.296 23.04 354.576 23.7467 354.576 24.6C354.576 25.6667 354.256 26.52 353.616 27.16C352.976 27.8 352.083 28.12 350.936 28.12H350.896ZM348.776 35.56L345.936 34.8V32.12L353.256 31.24H353.336L354.456 32.04V51.28L357.136 51.6V54H345.976V51.6L348.776 51.24V35.56ZM359.483 43C359.483 40.7067 359.936 38.6667 360.843 36.88C361.776 35.0933 363.096 33.7067 364.803 32.72C366.536 31.7067 368.55 31.2 370.843 31.2C371.91 31.2 372.83 31.28 373.603 31.44C374.376 31.6 375.243 31.8133 376.203 32.08L377.363 32.4L377.123 39.24H373.643L372.643 34.84C372.483 34.1467 371.696 33.8 370.283 33.8C368.79 33.8 367.616 34.4533 366.763 35.76C365.936 37.0667 365.51 39.1067 365.483 41.88C365.483 44.8133 365.99 47.0667 367.003 48.64C368.016 50.1867 369.363 50.96 371.043 50.96C373.07 50.96 374.936 50.4133 376.643 49.32L377.563 51.4C376.87 52.1467 375.803 52.84 374.363 53.48C372.95 54.12 371.416 54.44 369.763 54.44C366.35 54.44 363.776 53.3867 362.043 51.28C360.336 49.1733 359.483 46.4133 359.483 43ZM390.825 54.44C387.305 54.44 384.679 53.4133 382.945 51.36C381.239 49.28 380.385 46.4533 380.385 42.88C380.385 40.48 380.825 38.4 381.705 36.64C382.612 34.88 383.879 33.5333 385.505 32.6C387.132 31.6667 389.012 31.2 391.145 31.2C393.812 31.2 395.865 31.9067 397.305 33.32C398.745 34.7067 399.492 36.6933 399.545 39.28C399.545 41.04 399.439 42.3467 399.225 43.2H386.225C386.332 45.6267 386.905 47.52 387.945 48.88C388.985 50.2133 390.465 50.88 392.385 50.88C393.425 50.88 394.492 50.7067 395.585 50.36C396.705 50.0133 397.585 49.6 398.225 49.12L399.225 51.32C398.505 52.0933 397.332 52.8133 395.705 53.48C394.105 54.12 392.479 54.44 390.825 54.44ZM393.945 40.8C393.999 40.0533 394.025 39.48 394.025 39.08C394.025 35.5333 392.839 33.76 390.465 33.76C389.159 33.76 388.145 34.28 387.425 35.32C386.705 36.36 386.305 38.1867 386.225 40.8H393.945Z" fill="#BDAE82"/>
</svg>
