<svg width="700" height="80" viewBox="0 0 700 80" fill="none" xmlns="http://www.w3.org/2000/svg">
<path d="M0 39H700V41H0V39Z" fill="#BDAE82"/>
<path d="M274 0H426V80H274V0Z" fill="black"/>
<path d="M306.353 54.44C304.913 54.44 303.619 54.32 302.473 54.08C301.326 53.84 300.046 53.52 298.633 53.12C297.699 52.8533 297.073 52.7067 296.753 52.68L297.113 45.28H300.353L301.233 50.44C301.579 50.8133 302.193 51.1467 303.073 51.44C303.979 51.7333 305.006 51.88 306.153 51.88C307.939 51.88 309.273 51.4933 310.153 50.72C311.059 49.92 311.513 48.8133 311.513 47.4C311.513 46.4667 311.246 45.6667 310.713 45C310.179 44.3067 309.446 43.6933 308.513 43.16C307.579 42.6 306.299 41.96 304.673 41.24C302.459 40.2267 300.619 39.0267 299.153 37.64C297.713 36.2267 296.993 34.32 296.993 31.92C296.993 30.4267 297.379 29.08 298.153 27.88C298.926 26.6533 300.073 25.6933 301.593 25C303.139 24.28 305.019 23.92 307.233 23.92C308.539 23.92 309.686 24.0133 310.673 24.2C311.686 24.3867 312.779 24.64 313.953 24.96C314.646 25.1467 315.166 25.2667 315.513 25.32L315.273 32.32H312.073L311.233 27.4C310.993 27.16 310.513 26.9333 309.793 26.72C309.073 26.48 308.273 26.36 307.393 26.36C305.793 26.36 304.579 26.7333 303.753 27.48C302.953 28.2 302.553 29.1733 302.553 30.4C302.553 31.3867 302.846 32.24 303.433 32.96C304.046 33.68 304.779 34.2933 305.633 34.8C306.486 35.28 307.833 35.9733 309.673 36.88C311.166 37.6 312.446 38.3067 313.513 39C314.579 39.6933 315.499 40.6 316.273 41.72C317.046 42.8133 317.433 44.1067 317.433 45.6C317.433 47.0667 317.059 48.4667 316.313 49.8C315.593 51.1333 314.393 52.24 312.713 53.12C311.059 54 308.939 54.44 306.353 54.44ZM322.214 24.76L319.334 24.24V22.08L326.694 21.2H326.774L327.854 21.96V40.96L327.734 43.08L335.894 34.52L332.934 34.08V31.8H343.374V34.08L340.134 34.6L335.214 39.32L342.214 51.28L344.414 51.6V54H333.854V51.6L335.894 51.24L331.334 42.8L327.734 46.44L327.814 48.48V51.24L330.334 51.6V54H319.894V51.6L322.214 51.24V24.76ZM350.29 28.12C349.33 28.12 348.57 27.84 348.01 27.28C347.45 26.72 347.17 26 347.17 25.12C347.17 24.1067 347.49 23.2667 348.13 22.6C348.77 21.9333 349.624 21.6 350.69 21.6C351.757 21.6 352.57 21.8933 353.13 22.48C353.69 23.04 353.97 23.7467 353.97 24.6C353.97 25.6667 353.65 26.52 353.01 27.16C352.37 27.8 351.477 28.12 350.33 28.12H350.29ZM348.17 35.56L345.33 34.8V32.12L352.65 31.24H352.73L353.85 32.04V51.28L356.53 51.6V54H345.37V51.6L348.17 51.24V35.56ZM361.718 24.76L358.758 24.24V22.08L366.158 21.2H366.238L367.318 21.96V51.28L370.238 51.6V54H358.918V51.6L361.718 51.24V24.76ZM375.311 24.76L372.351 24.24V22.08L379.751 21.2H379.831L380.911 21.96V51.28L383.831 51.6V54H372.511V51.6L375.311 51.24V24.76ZM391.025 50.72C391.238 51.04 391.718 51.3467 392.465 51.64C393.238 51.9067 394.012 52.04 394.785 52.04C396.038 52.04 396.972 51.7867 397.585 51.28C398.225 50.7467 398.545 50.0533 398.545 49.2C398.545 48.32 398.158 47.6133 397.385 47.08C396.612 46.52 395.305 45.84 393.465 45.04L392.345 44.56C390.505 43.7867 389.132 42.8533 388.225 41.76C387.318 40.6667 386.865 39.2533 386.865 37.52C386.865 36.32 387.225 35.2533 387.945 34.32C388.665 33.36 389.678 32.6133 390.985 32.08C392.292 31.5467 393.798 31.28 395.505 31.28C396.758 31.28 397.825 31.36 398.705 31.52C399.612 31.68 400.558 31.8933 401.545 32.16C402.078 32.3467 402.478 32.4533 402.745 32.48V37.72H399.585L398.665 34.68C398.505 34.4133 398.145 34.1733 397.585 33.96C397.025 33.7467 396.385 33.64 395.665 33.64C394.572 33.64 393.692 33.88 393.025 34.36C392.385 34.8133 392.065 35.4533 392.065 36.28C392.065 37.0267 392.292 37.6533 392.745 38.16C393.198 38.64 393.692 39.0133 394.225 39.28C394.758 39.5467 395.745 39.9867 397.185 40.6C398.625 41.2133 399.812 41.8 400.745 42.36C401.705 42.92 402.492 43.6533 403.105 44.56C403.745 45.44 404.065 46.52 404.065 47.8C404.065 49.7733 403.292 51.3733 401.745 52.6C400.198 53.8267 397.972 54.44 395.065 54.44C393.705 54.44 392.478 54.32 391.385 54.08C390.318 53.84 389.078 53.52 387.665 53.12L386.785 52.84V47.56H390.105L391.025 50.72Z" fill="#BDAE82"/>
</svg>
