<svg width="700" height="80" viewBox="0 0 700 80" fill="none" xmlns="http://www.w3.org/2000/svg">
<path d="M0 39H700V41H0V39Z" fill="#BDAE82"/>
<path d="M273 0H429.026V80H273V0Z" fill="black"/>
<path d="M292.522 24.28H304.682V26.76L301.282 27.28L307.242 45.2L308.402 49.24L309.402 45.16L315.002 27.28L311.842 26.76V24.28H321.522V26.76L318.962 27.28L309.762 54.28H305.002L294.922 27.28L292.522 26.76V24.28ZM327.263 28.12C326.303 28.12 325.543 27.84 324.983 27.28C324.423 26.72 324.143 26 324.143 25.12C324.143 24.1067 324.463 23.2667 325.103 22.6C325.743 21.9333 326.596 21.6 327.663 21.6C328.73 21.6 329.543 21.8933 330.103 22.48C330.663 23.04 330.943 23.7467 330.943 24.6C330.943 25.6667 330.623 26.52 329.983 27.16C329.343 27.8 328.45 28.12 327.303 28.12H327.263ZM325.143 35.56L322.303 34.8V32.12L329.623 31.24H329.703L330.823 32.04V51.28L333.503 51.6V54H322.343V51.6L325.143 51.24V35.56ZM344.73 54.44C343.077 54.44 341.597 54.0533 340.29 53.28C338.984 52.48 337.944 51.2533 337.17 49.6C336.397 47.9467 336.01 45.88 336.01 43.4C336.01 41.16 336.464 39.12 337.37 37.28C338.304 35.4133 339.664 33.9333 341.45 32.84C343.237 31.7467 345.384 31.2 347.89 31.2C348.904 31.2 349.864 31.3067 350.77 31.52V24.76L346.85 24.2V22L355.09 21.2H355.21L356.33 22.04V51.56H358.49V53.84C356.57 54.24 354.984 54.44 353.73 54.44C352.877 54.44 352.264 54.2933 351.89 54C351.544 53.7333 351.37 53.1867 351.37 52.36V51.24C350.677 52.1733 349.73 52.9467 348.53 53.56C347.33 54.1467 346.064 54.44 344.73 54.44ZM346.81 51.12C347.69 51.12 348.464 50.9467 349.13 50.6C349.824 50.2267 350.37 49.7867 350.77 49.28V34.72C350.584 34.4533 350.184 34.2267 349.57 34.04C348.984 33.8533 348.344 33.76 347.65 33.76C345.944 33.76 344.57 34.5067 343.53 36C342.517 37.4667 342.01 39.8267 342.01 43.08C342.01 45.8 342.45 47.8267 343.33 49.16C344.21 50.4667 345.37 51.12 346.81 51.12ZM371.489 54.44C367.969 54.44 365.343 53.4133 363.609 51.36C361.903 49.28 361.049 46.4533 361.049 42.88C361.049 40.48 361.489 38.4 362.369 36.64C363.276 34.88 364.543 33.5333 366.169 32.6C367.796 31.6667 369.676 31.2 371.809 31.2C374.476 31.2 376.529 31.9067 377.969 33.32C379.409 34.7067 380.156 36.6933 380.209 39.28C380.209 41.04 380.103 42.3467 379.889 43.2H366.889C366.996 45.6267 367.569 47.52 368.609 48.88C369.649 50.2133 371.129 50.88 373.049 50.88C374.089 50.88 375.156 50.7067 376.249 50.36C377.369 50.0133 378.249 49.6 378.889 49.12L379.889 51.32C379.169 52.0933 377.996 52.8133 376.369 53.48C374.769 54.12 373.143 54.44 371.489 54.44ZM374.609 40.8C374.663 40.0533 374.689 39.48 374.689 39.08C374.689 35.5333 373.503 33.76 371.129 33.76C369.823 33.76 368.809 34.28 368.089 35.32C367.369 36.36 366.969 38.1867 366.889 40.8H374.609ZM383.402 42.92C383.402 40.4133 383.895 38.28 384.882 36.52C385.895 34.76 387.242 33.44 388.922 32.56C390.602 31.6533 392.428 31.2 394.402 31.2C397.762 31.2 400.348 32.24 402.162 34.32C404.002 36.3733 404.922 39.1733 404.922 42.72C404.922 45.2533 404.415 47.4133 403.402 49.2C402.415 50.96 401.082 52.28 399.402 53.16C397.748 54.0133 395.922 54.44 393.922 54.44C390.588 54.44 388.002 53.4133 386.162 51.36C384.322 49.28 383.402 46.4667 383.402 42.92ZM394.242 51.84C397.255 51.84 398.762 48.9333 398.762 43.12C398.762 40.08 398.402 37.7733 397.682 36.2C396.962 34.6 395.788 33.8 394.162 33.8C391.068 33.8 389.522 36.7067 389.522 42.52C389.522 45.56 389.895 47.88 390.642 49.48C391.415 51.0533 392.615 51.84 394.242 51.84Z" fill="#BDAE82"/>
</svg>
